# 3ds Max Wavefront OBJ Exporter v0.97b - (c)2007 guruware
# File Created: 08.03.2014 10:25:05

mtllib Clou_R.mtl

#
# object clou
#

v  18.9659 41.5162 0.0000
v  21.5143 40.0843 -7.0625
v  25.2193 36.4784 -12.2325
v  30.2804 31.5526 -14.1249
v  35.3416 26.6269 -12.2325
v  39.0466 23.0210 -7.0625
v  40.4027 21.7011 -0.0000
v  39.0466 23.0210 7.0625
v  35.3416 26.6269 12.2325
v  30.2804 31.5526 14.1249
v  25.2193 36.4784 12.2325
v  20.4116 40.1092 7.5287
v  17.2069 39.7088 0.0000
v  18.6525 38.3018 -7.5287
v  22.6021 34.4578 -13.0401
v  27.9974 29.2069 -15.0574
v  33.3927 23.9559 -13.0401
v  37.3423 20.1120 -7.5287
v  38.7880 18.7050 -0.0000
v  37.3423 20.1120 7.5287
v  33.3927 23.9559 13.0401
v  27.9974 29.2069 15.0574
v  22.6022 34.4578 13.0401
v  18.6525 38.3018 7.5287
v  23.8827 35.7735 0.0000
v  24.6055 35.0701 -3.7644
v  26.5803 33.1481 -6.5201
v  29.2780 30.5226 -7.5287
v  31.9756 27.8971 -6.5201
v  33.9504 25.9751 -3.7644
v  34.6732 25.2716 -0.0000
v  33.9504 25.9751 3.7644
v  31.9756 27.8971 6.5201
v  29.2780 30.5226 7.5287
v  26.5803 33.1481 6.5201
v  24.6055 35.0700 3.7644
v  29.2780 30.5226 0.0000
v  -27.1442 -27.4504 0.0000
v  -21.8283 -18.0213 0.0000
v  -21.5627 -18.2798 -1.3835
v  -20.8369 -18.9862 -2.3962
v  -19.8454 -19.9511 -2.7669
v  -18.8540 -20.9160 -2.3962
v  -18.1282 -21.6224 -1.3835
v  -17.8626 -21.8809 -0.0000
v  -18.1282 -21.6224 1.3835
v  -18.8540 -20.9160 2.3962
v  -19.8454 -19.9511 2.7669
v  -20.8369 -18.9862 2.3962
v  -21.5627 -18.2798 1.3835
v  21.8239 30.8649 -0.0000
v  22.3597 30.3434 -2.7903
v  23.8234 28.9188 -4.8329
v  25.8230 26.9727 -5.5805
v  27.8226 25.0266 -4.8329
v  29.2864 23.6020 -2.7903
v  29.8222 23.0805 -0.0000
v  29.2864 23.6020 2.7903
v  27.8226 25.0266 4.8329
v  25.8230 26.9727 5.5805
v  23.8235 28.9188 4.8329
v  22.3597 30.3434 2.7903
v  20.1581 41.4042 0.0000
v  20.4116 40.1092 -7.5287
v  24.3612 36.2653 -13.0401
v  29.7565 31.0143 -15.0574
v  35.1518 25.7634 -13.0401
v  39.1014 21.9194 -7.5287
v  40.5471 20.5124 -0.0000
v  39.1014 21.9194 7.5287
v  35.1518 25.7634 13.0401
v  29.7565 31.0143 15.0574
v  24.3612 36.2653 13.0401
v  21.5143 40.0843 7.0625
# 74 vertices

vn -0.7166 0.6975 0.0000
vn -0.6206 0.6040 -0.5000
vn -0.6206 0.6040 -0.5000
vn -0.7166 0.6975 0.0000
vn -0.6206 0.6040 -0.5000
vn -0.3583 0.3487 -0.8660
vn -0.3583 0.3487 -0.8660
vn -0.6206 0.6040 -0.5000
vn -0.3583 0.3487 -0.8660
vn -0.0000 0.0000 -1.0000
vn 0.0000 0.0000 -1.0000
vn -0.3583 0.3487 -0.8660
vn -0.0000 0.0000 -1.0000
vn 0.3583 -0.3487 -0.8660
vn 0.3583 -0.3487 -0.8660
vn 0.0000 0.0000 -1.0000
vn 0.3583 -0.3487 -0.8660
vn 0.6206 -0.6040 -0.5000
vn 0.6206 -0.6040 -0.5000
vn 0.3583 -0.3487 -0.8660
vn 0.6206 -0.6040 -0.5000
vn 0.7166 -0.6975 -0.0000
vn 0.7166 -0.6975 -0.0000
vn 0.6206 -0.6040 -0.5000
vn 0.7166 -0.6975 -0.0000
vn 0.6206 -0.6040 0.5000
vn 0.6206 -0.6040 0.5000
vn 0.7166 -0.6975 -0.0000
vn 0.6206 -0.6040 0.5000
vn 0.3583 -0.3487 0.8660
vn 0.3583 -0.3487 0.8660
vn 0.6206 -0.6040 0.5000
vn 0.3583 -0.3487 0.8660
vn 0.0000 -0.0000 1.0000
vn 0.0000 -0.0000 1.0000
vn 0.3583 -0.3487 0.8660
vn 0.0000 -0.0000 1.0000
vn -0.3583 0.3487 0.8660
vn -0.3583 0.3487 0.8660
vn 0.0000 -0.0000 1.0000
vn -0.3583 0.3487 0.8660
vn -0.6206 0.6040 0.5000
vn -0.6206 0.6040 0.5000
vn -0.3583 0.3487 0.8660
vn -0.6206 0.6040 0.5000
vn -0.7166 0.6975 0.0000
vn -0.7166 0.6975 0.0000
vn -0.6206 0.6040 0.5000
vn 0.8136 0.5716 0.1065
vn 0.8340 0.5517 -0.0000
vn 0.7813 0.6241 0.0000
vn 0.7694 0.6358 0.0623
vn 0.7578 0.6259 0.1844
vn 0.8136 0.5716 0.1065
vn 0.7694 0.6358 0.0623
vn 0.7367 0.6676 0.1079
vn 0.6815 0.7002 0.2129
vn 0.7578 0.6259 0.1844
vn 0.7367 0.6676 0.1079
vn 0.6920 0.7110 0.1246
vn 0.6052 0.7744 0.1844
vn 0.6815 0.7002 0.2129
vn 0.6920 0.7110 0.1246
vn 0.6474 0.7545 0.1079
vn 0.5493 0.8288 0.1065
vn 0.6052 0.7744 0.1844
vn 0.6474 0.7545 0.1079
vn 0.6147 0.7863 0.0623
vn 0.5289 0.8487 0.0000
vn 0.5493 0.8288 0.1065
vn 0.6147 0.7863 0.0623
vn 0.6027 0.7980 0.0000
vn 0.5493 0.8288 -0.1065
vn 0.5289 0.8487 0.0000
vn 0.6027 0.7980 0.0000
vn 0.6147 0.7863 -0.0623
vn 0.6052 0.7744 -0.1844
vn 0.5493 0.8288 -0.1065
vn 0.6147 0.7863 -0.0623
vn 0.6474 0.7545 -0.1079
vn 0.6815 0.7002 -0.2129
vn 0.6052 0.7744 -0.1844
vn 0.6474 0.7545 -0.1079
vn 0.6920 0.7110 -0.1246
vn 0.7578 0.6259 -0.1844
vn 0.6815 0.7002 -0.2129
vn 0.6920 0.7110 -0.1246
vn 0.7367 0.6676 -0.1079
vn 0.8136 0.5716 -0.1065
vn 0.7578 0.6259 -0.1844
vn 0.7367 0.6676 -0.1079
vn 0.7694 0.6358 -0.0623
vn 0.8340 0.5517 -0.0000
vn 0.8136 0.5716 -0.1065
vn 0.7694 0.6358 -0.0623
vn 0.7813 0.6241 0.0000
vn 0.7694 0.6358 0.0623
vn 0.7813 0.6241 0.0000
vn 0.6975 0.7166 0.0000
vn 0.7367 0.6676 0.1079
vn 0.7694 0.6358 0.0623
vn 0.6975 0.7166 0.0000
vn 0.6920 0.7110 0.1246
vn 0.7367 0.6676 0.1079
vn 0.6975 0.7166 0.0000
vn 0.6474 0.7545 0.1079
vn 0.6920 0.7110 0.1246
vn 0.6975 0.7166 0.0000
vn 0.6147 0.7863 0.0623
vn 0.6474 0.7545 0.1079
vn 0.6975 0.7166 0.0000
vn 0.6027 0.7980 0.0000
vn 0.6147 0.7863 0.0623
vn 0.6975 0.7166 0.0000
vn 0.6147 0.7863 -0.0623
vn 0.6027 0.7980 0.0000
vn 0.6975 0.7166 0.0000
vn 0.6474 0.7545 -0.1079
vn 0.6147 0.7863 -0.0623
vn 0.6975 0.7166 0.0000
vn 0.6920 0.7110 -0.1246
vn 0.6474 0.7545 -0.1079
vn 0.6975 0.7166 0.0000
vn 0.7367 0.6676 -0.1079
vn 0.6920 0.7110 -0.1246
vn 0.6975 0.7166 0.0000
vn 0.7694 0.6358 -0.0623
vn 0.7367 0.6676 -0.1079
vn 0.6975 0.7166 0.0000
vn 0.7813 0.6241 0.0000
vn 0.7694 0.6358 -0.0623
vn 0.6975 0.7166 0.0000
vn -0.8117 0.5841 -0.0000
vn -0.7168 0.4916 -0.4945
vn -0.6975 -0.7166 -0.0000
vn -0.7168 0.4916 -0.4945
vn -0.4573 0.2391 -0.8565
vn -0.6975 -0.7166 -0.0000
vn -0.4573 0.2391 -0.8565
vn -0.1029 -0.1058 -0.9891
vn -0.6975 -0.7166 -0.0000
vn -0.1029 -0.1058 -0.9891
vn 0.2515 -0.4507 -0.8565
vn -0.6975 -0.7166 -0.0000
vn 0.2515 -0.4507 -0.8565
vn 0.5109 -0.7032 -0.4945
vn -0.6975 -0.7166 -0.0000
vn 0.5109 -0.7032 -0.4945
vn 0.6058 -0.7956 0.0000
vn -0.6975 -0.7166 -0.0000
vn 0.6058 -0.7956 0.0000
vn 0.5109 -0.7032 0.4945
vn -0.6975 -0.7166 -0.0000
vn 0.5109 -0.7032 0.4945
vn 0.2515 -0.4507 0.8565
vn -0.6975 -0.7166 -0.0000
vn 0.2515 -0.4507 0.8565
vn -0.1029 -0.1058 0.9891
vn -0.6975 -0.7166 -0.0000
vn -0.1029 -0.1058 0.9891
vn -0.4573 0.2391 0.8565
vn -0.6975 -0.7166 -0.0000
vn -0.4573 0.2391 0.8565
vn -0.7168 0.4916 0.4945
vn -0.6975 -0.7166 -0.0000
vn -0.7168 0.4916 0.4945
vn -0.8117 0.5841 -0.0000
vn -0.6975 -0.7166 -0.0000
vn -0.8865 -0.4628 -0.0000
vn -0.8565 -0.4920 -0.1562
vn -0.8565 -0.4920 -0.1562
vn -0.8865 -0.4628 0.0000
vn -0.8565 -0.4920 -0.1562
vn -0.7745 -0.5718 -0.2706
vn -0.7745 -0.5718 -0.2706
vn -0.8565 -0.4920 -0.1562
vn -0.7745 -0.5718 -0.2706
vn -0.6625 -0.6807 -0.3125
vn -0.6625 -0.6807 -0.3125
vn -0.7745 -0.5718 -0.2706
vn -0.6625 -0.6807 -0.3125
vn -0.5506 -0.7897 -0.2706
vn -0.5506 -0.7897 -0.2706
vn -0.6625 -0.6807 -0.3125
vn -0.5506 -0.7897 -0.2706
vn -0.4686 -0.8695 -0.1562
vn -0.4686 -0.8695 -0.1562
vn -0.5506 -0.7897 -0.2706
vn -0.4686 -0.8695 -0.1562
vn -0.4386 -0.8987 -0.0000
vn -0.4386 -0.8987 -0.0000
vn -0.4686 -0.8695 -0.1562
vn -0.4386 -0.8987 -0.0000
vn -0.4686 -0.8695 0.1562
vn -0.4686 -0.8695 0.1562
vn -0.4386 -0.8987 -0.0000
vn -0.4686 -0.8695 0.1562
vn -0.5506 -0.7897 0.2706
vn -0.5506 -0.7897 0.2706
vn -0.4686 -0.8695 0.1562
vn -0.5506 -0.7897 0.2706
vn -0.6625 -0.6807 0.3125
vn -0.6625 -0.6807 0.3125
vn -0.5506 -0.7897 0.2706
vn -0.6625 -0.6807 0.3125
vn -0.7745 -0.5718 0.2706
vn -0.7745 -0.5718 0.2706
vn -0.6625 -0.6807 0.3125
vn -0.7745 -0.5718 0.2706
vn -0.8565 -0.4920 0.1562
vn -0.8565 -0.4920 0.1562
vn -0.7745 -0.5718 0.2706
vn -0.8565 -0.4920 0.1562
vn -0.8865 -0.4628 -0.0000
vn -0.8865 -0.4628 0.0000
vn -0.8565 -0.4920 0.1562
vn -0.7168 0.4916 -0.4945
vn -0.8117 0.5841 -0.0000
vn -0.7459 0.6660 0.0000
vn -0.6500 0.5727 -0.4995
vn -0.4573 0.2391 -0.8565
vn -0.7168 0.4916 -0.4945
vn -0.6500 0.5727 -0.4995
vn -0.3879 0.3176 -0.8652
vn -0.1029 -0.1058 -0.9891
vn -0.4573 0.2391 -0.8565
vn -0.3879 0.3176 -0.8652
vn -0.0299 -0.0308 -0.9991
vn 0.2515 -0.4507 -0.8565
vn -0.1029 -0.1058 -0.9891
vn -0.0299 -0.0308 -0.9991
vn 0.3280 -0.3792 -0.8652
vn 0.5109 -0.7032 -0.4945
vn 0.2515 -0.4507 -0.8565
vn 0.3280 -0.3792 -0.8652
vn 0.5901 -0.6342 -0.4995
vn 0.6058 -0.7956 0.0000
vn 0.5109 -0.7032 -0.4945
vn 0.5901 -0.6342 -0.4995
vn 0.6860 -0.7276 0.0000
vn 0.5109 -0.7032 0.4945
vn 0.6058 -0.7956 0.0000
vn 0.6860 -0.7276 0.0000
vn 0.5901 -0.6342 0.4995
vn 0.2515 -0.4507 0.8565
vn 0.5109 -0.7032 0.4945
vn 0.5901 -0.6342 0.4995
vn 0.3280 -0.3792 0.8652
vn -0.1029 -0.1058 0.9891
vn 0.2515 -0.4507 0.8565
vn 0.3280 -0.3792 0.8652
vn -0.0299 -0.0308 0.9991
vn -0.4573 0.2391 0.8565
vn -0.1029 -0.1058 0.9891
vn -0.0299 -0.0308 0.9991
vn -0.3879 0.3176 0.8652
vn -0.7168 0.4916 0.4945
vn -0.4573 0.2391 0.8565
vn -0.3879 0.3176 0.8652
vn -0.6500 0.5727 0.4995
vn -0.8117 0.5841 -0.0000
vn -0.7168 0.4916 0.4945
vn -0.6500 0.5727 0.4995
vn -0.7459 0.6660 0.0000
vn 0.0936 0.9956 0.0000
vn 0.0936 0.9956 0.0000
vn 0.1538 0.9370 -0.3137
vn 0.1538 0.9370 -0.3137
vn 0.1538 0.9370 -0.3137
vn 0.1538 0.9370 -0.3137
vn 0.3184 0.7768 -0.5433
vn 0.3184 0.7768 -0.5433
vn 0.3184 0.7768 -0.5433
vn 0.3184 0.7768 -0.5433
vn 0.5431 0.5581 -0.6273
vn 0.5431 0.5581 -0.6273
vn 0.5431 0.5581 -0.6273
vn 0.5431 0.5581 -0.6273
vn 0.7679 0.3393 -0.5433
vn 0.7679 0.3393 -0.5433
vn 0.7679 0.3393 -0.5433
vn 0.7679 0.3393 -0.5433
vn 0.9325 0.1792 -0.3137
vn 0.9325 0.1792 -0.3137
vn 0.9325 0.1792 -0.3137
vn 0.9325 0.1792 -0.3137
vn 0.9927 0.1205 -0.0000
vn 0.9927 0.1205 -0.0000
vn 0.9927 0.1205 -0.0000
vn 0.9927 0.1205 -0.0000
vn 0.9325 0.1792 0.3137
vn 0.9325 0.1792 0.3137
vn 0.9325 0.1792 0.3137
vn 0.9325 0.1792 0.3137
vn 0.7679 0.3393 0.5433
vn 0.7679 0.3393 0.5433
vn 0.7679 0.3393 0.5433
vn 0.7679 0.3393 0.5433
vn 0.5431 0.5581 0.6273
vn 0.5431 0.5581 0.6273
vn 0.5431 0.5581 0.6273
vn 0.5431 0.5581 0.6273
vn 0.3184 0.7768 0.5433
vn 0.3184 0.7768 0.5433
vn 0.3184 0.7768 0.5433
vn 0.3184 0.7768 0.5433
vn 0.1538 0.9370 0.3137
vn 0.1538 0.9370 0.3137
vn 0.1538 0.9370 0.3137
vn 0.1538 0.9370 0.3137
vn 0.0936 0.9956 0.0000
vn 0.0936 0.9956 0.0000
# 312 vertex normals

vt 0.7594 0.8321 0.0000
vt 0.7594 0.8578 0.0000
vt 0.7511 0.8578 0.0000
vt 0.7511 0.8321 0.0000
vt 0.7594 0.8835 0.0000
vt 0.7511 0.8835 0.0000
vt 0.7594 0.9093 0.0000
vt 0.7511 0.9093 0.0000
vt 0.7594 0.9350 0.0000
vt 0.7511 0.9350 0.0000
vt 0.7594 0.9607 0.0000
vt 0.7511 0.9607 0.0000
vt 0.7594 0.9864 0.0000
vt 0.7511 0.9864 0.0000
vt 0.7594 0.7036 0.0000
vt 0.7511 0.7036 0.0000
vt 0.7594 0.7293 0.0000
vt 0.7511 0.7293 0.0000
vt 0.7594 0.7550 0.0000
vt 0.7511 0.7550 0.0000
vt 0.7594 0.7807 0.0000
vt 0.7511 0.7807 0.0000
vt 0.7594 0.8064 0.0000
vt 0.7511 0.8064 0.0000
vt 0.7529 0.8635 0.0000
vt 0.7433 0.8280 0.0000
vt 0.7771 0.8279 0.0000
vt 0.7821 0.8466 0.0000
vt 0.7788 0.8895 0.0000
vt 0.7957 0.8602 0.0000
vt 0.8144 0.8990 0.0000
vt 0.8143 0.8652 0.0000
vt 0.8499 0.8895 0.0000
vt 0.8330 0.8603 0.0000
vt 0.8759 0.8635 0.0000
vt 0.8466 0.8466 0.0000
vt 0.8854 0.8280 0.0000
vt 0.8516 0.8280 0.0000
vt 0.8759 0.7924 0.0000
vt 0.8467 0.8094 0.0000
vt 0.8499 0.7664 0.0000
vt 0.8331 0.7957 0.0000
vt 0.8144 0.7569 0.0000
vt 0.8144 0.7907 0.0000
vt 0.7788 0.7664 0.0000
vt 0.7958 0.7957 0.0000
vt 0.7529 0.7925 0.0000
vt 0.7821 0.8093 0.0000
vt 0.8144 0.8280 0.0000
vt 0.6796 0.8049 0.0000
vt 0.6795 0.8051 0.0000
vt 0.6782 0.8048 0.0000
vt 0.6791 0.8052 0.0000
vt 0.6785 0.8052 0.0000
vt 0.6777 0.8052 0.0000
vt 0.6767 0.8049 0.0000
vt 0.6755 0.8045 0.0000
vt 0.6767 0.8043 0.0000
vt 0.6778 0.8043 0.0000
vt 0.6786 0.8043 0.0000
vt 0.6792 0.8045 0.0000
vt 0.6795 0.8047 0.0000
vt 0.8314 0.8430 0.0000
vt 0.8351 0.8296 0.0000
vt 0.8215 0.8528 0.0000
vt 0.8081 0.8563 0.0000
vt 0.7947 0.8526 0.0000
vt 0.7849 0.8426 0.0000
vt 0.7815 0.8292 0.0000
vt 0.7852 0.8157 0.0000
vt 0.7951 0.8060 0.0000
vt 0.8085 0.8025 0.0000
vt 0.8219 0.8062 0.0000
vt 0.8316 0.8161 0.0000
vt 0.7373 0.8280 0.0000
vt 0.7476 0.8665 0.0000
vt 0.8750 0.8679 0.0000
vt 0.8853 0.8294 0.0000
vt 0.7758 0.8947 0.0000
vt 0.8468 0.8961 0.0000
vt 0.8144 0.9051 0.0000
vt 0.8083 0.9065 0.0000
vt 0.8529 0.8947 0.0000
vt 0.7697 0.8961 0.0000
vt 0.8812 0.8665 0.0000
vt 0.7415 0.8679 0.0000
vt 0.8915 0.8280 0.0000
vt 0.7312 0.8294 0.0000
vt 0.8812 0.7894 0.0000
vt 0.7415 0.7908 0.0000
vt 0.8529 0.7612 0.0000
vt 0.7697 0.7626 0.0000
vt 0.8144 0.7508 0.0000
vt 0.8083 0.7522 0.0000
vt 0.7758 0.7612 0.0000
vt 0.8468 0.7626 0.0000
vt 0.7476 0.7894 0.0000
vt 0.8750 0.7908 0.0000
vt 0.9935 0.8463 0.0000
vt 0.9959 0.8324 0.0000
vt 0.9907 0.8601 0.0000
vt 0.9873 0.8737 0.0000
vt 0.9836 0.8872 0.0000
vt 0.9793 0.9006 0.0000
vt 0.9747 0.9138 0.0000
vt 0.9921 0.7624 0.0000
vt 0.9938 0.7763 0.0000
vt 0.9950 0.7903 0.0000
vt 0.9958 0.8043 0.0000
vt 0.9961 0.8183 0.0000
vt 0.9900 0.7485 0.0000
vt 0.7594 0.6778 0.0000
vt 0.7511 0.6778 0.0000
# 113 texture coords

g clou
usemtl Material__33
s 262144
f 1/1/1 64/2/2 14/3/3 13/4/4 
f 64/2/5 65/5/6 15/6/7 14/3/8 
f 65/5/9 66/7/10 16/8/11 15/6/12 
f 66/7/13 67/9/14 17/10/15 16/8/16 
f 67/9/17 68/11/18 18/12/19 17/10/20 
f 68/11/21 69/13/22 19/14/23 18/12/24 
f 69/112/25 70/15/26 20/16/27 19/113/28 
f 70/15/29 71/17/30 21/18/31 20/16/32 
f 71/17/33 72/19/34 22/20/35 21/18/36 
f 72/19/37 73/21/38 23/22/39 22/20/40 
f 73/21/41 12/23/42 24/24/43 23/22/44 
f 12/23/45 1/1/46 13/4/47 24/24/48 
s 2
f 2/25/49 63/26/50 25/27/51 26/28/52 
f 3/29/53 2/25/54 26/28/55 27/30/56 
f 4/31/57 3/29/58 27/30/59 28/32/60 
f 5/33/61 4/31/62 28/32/63 29/34/64 
f 6/35/65 5/33/66 29/34/67 30/36/68 
f 7/37/69 6/35/70 30/36/71 31/38/72 
f 8/39/73 7/37/74 31/38/75 32/40/76 
f 9/41/77 8/39/78 32/40/79 33/42/80 
f 10/43/81 9/41/82 33/42/83 34/44/84 
f 11/45/85 10/43/86 34/44/87 35/46/88 
f 74/47/89 11/45/90 35/46/91 36/48/92 
f 63/26/93 74/47/94 36/48/95 25/27/96 
f 26/28/97 25/27/98 37/49/99 
f 27/30/100 26/28/101 37/49/102 
f 28/32/103 27/30/104 37/49/105 
f 29/34/106 28/32/107 37/49/108 
f 30/36/109 29/34/110 37/49/111 
f 31/38/112 30/36/113 37/49/114 
f 32/40/115 31/38/116 37/49/117 
f 33/42/118 32/40/119 37/49/120 
f 34/44/121 33/42/122 37/49/123 
f 35/46/124 34/44/125 37/49/126 
f 36/48/127 35/46/128 37/49/129 
f 25/27/130 36/48/131 37/49/132 
s 256
f 39/50/133 40/51/134 38/52/135 
f 40/51/136 41/53/137 38/52/138 
f 41/53/139 42/54/140 38/52/141 
f 42/54/142 43/55/143 38/52/144 
f 43/55/145 44/56/146 38/52/147 
f 44/56/148 45/57/149 38/52/150 
f 45/57/151 46/58/152 38/52/153 
f 46/58/154 47/59/155 38/52/156 
f 47/59/157 48/60/158 38/52/159 
f 48/60/160 49/61/161 38/52/162 
f 49/61/163 50/62/164 38/52/165 
f 50/62/166 39/50/167 38/52/168 
s 4096
f 13/78/169 14/77/170 52/63/171 51/64/172 
f 14/77/173 15/80/174 53/65/175 52/63/176 
f 15/80/177 16/82/178 54/66/179 53/65/180 
f 16/82/181 17/84/182 55/67/183 54/66/184 
f 17/84/185 18/86/186 56/68/187 55/67/188 
f 18/86/189 19/88/190 57/69/191 56/68/192 
f 19/88/193 20/90/194 58/70/195 57/69/196 
f 20/90/197 21/92/198 59/71/199 58/70/200 
f 21/92/201 22/94/202 60/72/203 59/71/204 
f 22/94/205 23/96/206 61/73/207 60/72/208 
f 23/96/209 24/98/210 62/74/211 61/73/212 
f 24/98/213 13/78/214 51/64/215 62/74/216 
s 256
f 40/51/217 39/50/218 51/100/219 52/99/220 
f 41/53/221 40/51/222 52/99/223 53/101/224 
f 42/54/225 41/53/226 53/101/227 54/102/228 
f 43/55/229 42/54/230 54/102/231 55/103/232 
f 44/56/233 43/55/234 55/103/235 56/104/236 
f 45/57/237 44/56/238 56/104/239 57/105/240 
f 46/58/241 45/57/242 57/111/243 58/106/244 
f 47/59/245 46/58/246 58/106/247 59/107/248 
f 48/60/249 47/59/250 59/107/251 60/108/252 
f 49/61/253 48/60/254 60/108/255 61/109/256 
f 50/62/257 49/61/258 61/109/259 62/110/260 
f 39/50/261 50/62/262 62/110/263 51/100/264 
s 65536
f 1/75/265 63/26/266 2/25/267 64/76/268 
f 64/76/269 2/25/270 3/29/271 65/79/272 
f 65/79/273 3/29/274 4/31/275 66/81/276 
f 66/81/277 4/31/278 5/33/279 67/83/280 
f 67/83/281 5/33/282 6/35/283 68/85/284 
f 68/85/285 6/35/286 7/37/287 69/87/288 
f 69/87/289 7/37/290 8/39/291 70/89/292 
f 70/89/293 8/39/294 9/41/295 71/91/296 
f 71/91/297 9/41/298 10/43/299 72/93/300 
f 72/93/301 10/43/302 11/45/303 73/95/304 
f 73/95/305 11/45/306 74/47/307 12/97/308 
f 12/97/309 74/47/310 63/26/311 1/75/312 
# 60 polygons - 24 triangles

