# 3ds Max Wavefront OBJ Exporter v0.97b - (c)2007 guruware
# File Created: 08.03.2014 10:29:35

mtllib Elastiques_R.mtl

#
# object elastique
#

v  15.4604 5.7338 -34.6464
v  19.0629 5.6152 -28.3451
v  19.0629 -5.6908 -28.3451
v  15.4604 -5.5721 -34.6464
v  27.8695 6.2696 -37.9869
v  28.1790 6.1852 -32.0643
v  28.1790 -5.1208 -32.0643
v  27.8695 -5.0363 -37.9869
v  39.6541 6.6753 -35.6811
v  36.5853 6.6330 -30.6217
v  36.5853 -4.6730 -30.6217
v  39.6541 -4.6306 -35.6811
v  47.1383 6.9597 -27.5111
v  41.7926 6.9682 -24.1601
v  41.7926 -4.3378 -24.1601
v  47.1383 -4.3463 -27.5111
v  48.8084 7.1873 -14.9637
v  42.5564 7.2330 -13.9027
v  42.5564 -4.0730 -13.9027
v  48.8084 -4.1187 -14.9637
v  43.9223 7.5529 -1.8350
v  38.5151 7.5162 -2.2619
v  38.5151 -3.7898 -2.2619
v  43.9223 -3.7530 -1.8350
v  34.8469 7.9302 10.7166
v  30.9551 7.7591 9.4342
v  30.9551 -3.5469 9.4342
v  34.8469 -3.3758 10.7166
v  24.3045 8.0707 23.0247
v  21.6024 7.8379 20.6358
v  21.6024 -3.4681 20.6358
v  24.3045 -3.2353 23.0247
v  13.7557 7.9512 33.6726
v  11.7081 7.7310 30.1438
v  11.7081 -3.5749 30.1438
v  13.7557 -3.3548 33.6726
v  4.3592 7.6312 41.0667
v  2.0631 7.4771 36.7464
v  2.0631 -3.8289 36.7464
v  4.3592 -3.6748 41.0667
v  -6.0171 7.2270 44.4628
v  -8.1180 7.1416 39.8765
v  -8.1180 -4.1644 39.8765
v  -6.0171 -4.0790 44.4628
v  -20.0519 6.8539 43.7150
v  -19.5200 6.7749 39.5545
v  -19.5200 -4.5311 39.5545
v  -20.0519 -4.4521 43.7150
v  -34.0205 6.4459 39.5256
v  -29.5680 6.3488 36.2601
v  -29.5680 -4.9572 36.2601
v  -34.0205 -4.8600 39.5256
v  -41.9668 5.9588 32.2671
v  -34.4036 5.8461 30.3892
v  -34.4036 -5.4599 30.3892
v  -41.9668 -5.3472 32.2671
v  -40.9094 5.3926 22.7838
v  -31.8050 5.2764 22.6351
v  -31.8050 -6.0295 22.6351
v  -40.9094 -5.9134 22.7838
v  -29.1349 4.6245 13.5501
v  -21.4435 4.6440 14.2253
v  -21.4435 -6.6619 14.2253
v  -29.1349 -6.6815 13.5501
v  -11.1091 3.9288 4.1149
v  -7.0589 4.1766 4.8801
v  -7.0589 -7.1294 4.8801
v  -11.1091 -7.3772 4.1149
v  1.9940 4.0161 -9.1187
v  4.6128 4.2655 -6.8106
v  4.6128 -7.0405 -6.8106
v  1.9940 -7.2899 -9.1187
v  7.8676 4.8783 -24.2905
v  11.8609 4.8924 -19.2635
v  11.8609 -6.4136 -19.2635
v  7.8676 -6.4277 -24.2905
# 76 vertices

vn -0.0293 -0.0000 -0.9996
vn -0.0404 0.0000 -0.9992
vn -0.5750 -0.0000 -0.8182
vn -0.5550 -0.0000 -0.8318
vn -0.0454 0.9982 0.0401
vn -0.0472 0.9979 0.0442
vn -0.0481 0.9986 0.0211
vn -0.0428 0.9990 0.0114
vn 0.5922 -0.0000 0.8058
vn 0.6083 -0.0000 0.7937
vn 0.1185 -0.0000 0.9930
vn 0.0985 -0.0000 0.9951
vn 0.0418 -0.9984 -0.0387
vn 0.0402 -0.9984 -0.0403
vn 0.0419 -0.9989 -0.0210
vn 0.0483 -0.9988 -0.0118
vn 0.4947 0.0000 -0.8691
vn 0.4838 -0.0000 -0.8752
vn -0.0404 0.0000 -0.9992
vn -0.0293 -0.0000 -0.9996
vn -0.0428 0.9990 0.0114
vn -0.0481 0.9986 0.0211
vn -0.0407 0.9991 -0.0104
vn -0.0309 0.9994 -0.0157
vn 0.0985 -0.0000 0.9951
vn 0.1185 -0.0000 0.9930
vn -0.4970 -0.0000 0.8678
vn -0.5162 0.0000 0.8565
vn 0.0483 -0.9988 -0.0118
vn 0.0419 -0.9989 -0.0210
vn 0.0363 -0.9993 0.0075
vn 0.0378 -0.9991 0.0194
vn 0.9079 -0.0000 -0.4192
vn 0.9042 -0.0000 -0.4271
vn 0.4838 -0.0000 -0.8752
vn 0.4947 0.0000 -0.8691
vn -0.0309 0.9994 -0.0157
vn -0.0407 0.9991 -0.0104
vn -0.0174 0.9996 -0.0233
vn -0.0101 0.9997 -0.0227
vn -0.5162 0.0000 0.8565
vn -0.4970 -0.0000 0.8678
vn -0.9276 0.0000 0.3736
vn -0.9324 0.0000 0.3614
vn 0.0378 -0.9991 0.0194
vn 0.0363 -0.9993 0.0075
vn 0.0170 -0.9996 0.0213
vn 0.0124 -0.9996 0.0266
vn 0.9933 -0.0000 0.1152
vn 0.9941 -0.0000 0.1083
vn 0.9042 -0.0000 -0.4271
vn 0.9079 -0.0000 -0.4192
vn -0.0101 0.9997 -0.0227
vn -0.0174 0.9996 -0.0233
vn 0.0017 0.9998 -0.0220
vn 0.0029 0.9998 -0.0212
vn -0.9324 0.0000 0.3614
vn -0.9276 0.0000 0.3736
vn -0.9920 0.0000 -0.1264
vn -0.9912 0.0000 -0.1327
vn 0.0124 -0.9996 0.0266
vn 0.0170 -0.9996 0.0213
vn -0.0005 -0.9997 0.0246
vn -0.0019 -0.9997 0.0264
vn 0.8808 -0.0000 0.4736
vn 0.8828 -0.0000 0.4697
vn 0.9941 -0.0000 0.1083
vn 0.9933 -0.0000 0.1152
vn 0.0029 0.9998 -0.0212
vn 0.0017 0.9998 -0.0220
vn -0.0039 0.9997 -0.0255
vn -0.0064 0.9995 -0.0296
vn -0.9912 0.0000 -0.1327
vn -0.9920 0.0000 -0.1264
vn -0.8994 0.0000 -0.4372
vn -0.8980 0.0000 -0.4399
vn -0.0019 -0.9997 0.0264
vn -0.0005 -0.9997 0.0246
vn 0.0033 -0.9996 0.0286
vn 0.0067 -0.9995 0.0310
vn 0.7853 -0.0000 0.6191
vn 0.7859 0.0000 0.6184
vn 0.8828 -0.0000 0.4697
vn 0.8808 -0.0000 0.4736
vn -0.0064 0.9995 -0.0296
vn -0.0039 0.9997 -0.0255
vn -0.0286 0.9989 -0.0383
vn -0.0302 0.9985 -0.0449
vn -0.8980 0.0000 -0.4399
vn -0.8994 0.0000 -0.4372
vn -0.8055 0.0000 -0.5926
vn -0.8050 0.0000 -0.5933
vn 0.0067 -0.9995 0.0310
vn 0.0033 -0.9996 0.0286
vn 0.0278 -0.9989 0.0388
vn 0.0321 -0.9987 0.0397
vn 0.7354 0.0000 0.6776
vn 0.7354 0.0000 0.6776
vn 0.7859 0.0000 0.6184
vn 0.7853 -0.0000 0.6191
vn -0.0302 0.9985 -0.0449
vn -0.0286 0.9989 -0.0383
vn -0.0459 0.9980 -0.0435
vn -0.0462 0.9980 -0.0441
vn -0.8050 0.0000 -0.5933
vn -0.8055 0.0000 -0.5926
vn -0.7313 0.0000 -0.6820
vn -0.7314 0.0000 -0.6820
vn 0.0321 -0.9987 0.0397
vn 0.0278 -0.9989 0.0388
vn 0.0473 -0.9980 0.0418
vn 0.0481 -0.9980 0.0421
vn 0.6662 0.0000 0.7458
vn 0.6652 -0.0000 0.7467
vn 0.7354 0.0000 0.6776
vn 0.7354 0.0000 0.6776
vn -0.0462 0.9980 -0.0441
vn -0.0459 0.9980 -0.0435
vn -0.0482 0.9982 -0.0349
vn -0.0475 0.9984 -0.0314
vn -0.7314 0.0000 -0.6820
vn -0.7313 0.0000 -0.6820
vn -0.6304 0.0000 -0.7762
vn -0.6316 0.0000 -0.7753
vn 0.0481 -0.9980 0.0421
vn 0.0473 -0.9980 0.0418
vn 0.0524 -0.9981 0.0324
vn 0.0483 -0.9983 0.0314
vn 0.4751 -0.0000 0.8799
vn 0.4688 0.0000 0.8833
vn 0.6652 -0.0000 0.7467
vn 0.6662 0.0000 0.7458
vn -0.0475 0.9984 -0.0314
vn -0.0482 0.9982 -0.0349
vn -0.0412 0.9990 -0.0161
vn -0.0409 0.9991 -0.0118
vn -0.6316 0.0000 -0.7753
vn -0.6304 0.0000 -0.7762
vn -0.4320 0.0000 -0.9019
vn -0.4366 -0.0000 -0.8996
vn 0.0483 -0.9983 0.0314
vn 0.0524 -0.9981 0.0324
vn 0.0423 -0.9990 0.0158
vn 0.0390 -0.9992 0.0130
vn 0.1349 0.0000 0.9909
vn 0.1274 0.0000 0.9919
vn 0.4688 0.0000 0.8833
vn 0.4751 -0.0000 0.8799
vn -0.0409 0.9991 -0.0118
vn -0.0412 0.9990 -0.0161
vn -0.0348 0.9994 -0.0043
vn -0.0356 0.9994 -0.0039
vn -0.4366 -0.0000 -0.8996
vn -0.4320 0.0000 -0.9019
vn -0.1313 -0.0000 -0.9913
vn -0.1379 -0.0000 -0.9904
vn 0.0390 -0.9992 0.0130
vn 0.0423 -0.9990 0.0158
vn 0.0324 -0.9995 0.0060
vn 0.0299 -0.9995 0.0068
vn -0.1694 -0.0000 0.9855
vn -0.1735 -0.0000 0.9848
vn 0.1274 0.0000 0.9919
vn 0.1349 0.0000 0.9909
vn -0.0356 0.9994 -0.0039
vn -0.0348 0.9994 -0.0043
vn -0.0308 0.9993 -0.0211
vn -0.0273 0.9993 -0.0261
vn -0.1379 -0.0000 -0.9904
vn -0.1313 -0.0000 -0.9913
vn 0.1750 0.0000 -0.9846
vn 0.1684 0.0000 -0.9857
vn 0.0299 -0.9995 0.0068
vn 0.0324 -0.9995 0.0060
vn 0.0265 -0.9994 0.0204
vn 0.0269 -0.9993 0.0260
vn -0.4886 -0.0000 0.8725
vn -0.4978 -0.0000 0.8673
vn -0.1735 -0.0000 0.9848
vn -0.1694 -0.0000 0.9855
vn -0.0273 0.9993 -0.0261
vn -0.0308 0.9993 -0.0211
vn -0.0208 0.9984 -0.0531
vn -0.0146 0.9981 -0.0595
vn 0.1684 0.0000 -0.9857
vn 0.1750 0.0000 -0.9846
vn 0.5721 0.0000 -0.8202
vn 0.5559 0.0000 -0.8313
vn 0.0269 -0.9993 0.0260
vn 0.0265 -0.9994 0.0204
vn 0.0177 -0.9986 0.0497
vn 0.0180 -0.9980 0.0610
vn -0.9299 -0.0000 0.3679
vn -0.9418 0.0000 0.3362
vn -0.4978 -0.0000 0.8673
vn -0.4886 -0.0000 0.8725
vn -0.0146 0.9981 -0.0595
vn -0.0208 0.9984 -0.0531
vn -0.0063 0.9975 -0.0699
vn 0.0023 0.9979 -0.0653
vn 0.5559 0.0000 -0.8313
vn 0.5721 0.0000 -0.8202
vn 0.9874 0.0000 -0.1583
vn 0.9787 0.0000 -0.2053
vn 0.0180 -0.9980 0.0610
vn 0.0177 -0.9986 0.0497
vn 0.0042 -0.9980 0.0632
vn -0.0003 -0.9974 0.0724
vn -0.8806 0.0000 -0.4739
vn -0.8662 0.0000 -0.4997
vn -0.9418 0.0000 0.3362
vn -0.9299 -0.0000 0.3679
vn 0.0023 0.9979 -0.0653
vn -0.0063 0.9975 -0.0699
vn 0.0097 0.9980 -0.0620
vn 0.0110 0.9981 -0.0607
vn 0.9787 0.0000 -0.2053
vn 0.9874 0.0000 -0.1583
vn 0.8156 0.0000 0.5786
vn 0.8279 0.0000 0.5609
vn -0.0003 -0.9974 0.0724
vn 0.0042 -0.9980 0.0632
vn -0.0076 -0.9978 0.0656
vn -0.0103 -0.9976 0.0690
vn -0.5448 -0.0000 -0.8386
vn -0.5406 -0.0000 -0.8413
vn -0.8662 0.0000 -0.4997
vn -0.8806 0.0000 -0.4739
vn 0.0110 0.9981 -0.0607
vn 0.0097 0.9980 -0.0620
vn 0.0029 0.9986 -0.0532
vn 0.0024 0.9972 -0.0751
vn 0.8279 0.0000 0.5609
vn 0.8156 0.0000 0.5786
vn 0.5873 0.0000 0.8094
vn 0.5893 -0.0000 0.8079
vn -0.0103 -0.9976 0.0690
vn -0.0076 -0.9978 0.0656
vn -0.0053 -0.9976 0.0694
vn -0.0008 -0.9975 0.0706
vn -0.5931 -0.0000 -0.8052
vn -0.5954 0.0000 -0.8034
vn -0.5406 -0.0000 -0.8413
vn -0.5448 -0.0000 -0.8386
vn 0.0024 0.9972 -0.0751
vn 0.0029 0.9986 -0.0532
vn -0.0454 0.9970 -0.0632
vn -0.0396 0.9929 -0.1122
vn 0.5893 -0.0000 0.8079
vn 0.5873 0.0000 0.8094
vn 0.6303 -0.0000 0.7764
vn 0.6291 -0.0000 0.7773
vn -0.0008 -0.9975 0.0706
vn -0.0053 -0.9976 0.0694
vn 0.0398 -0.9953 0.0886
vn 0.0493 -0.9968 0.0626
vn -0.8413 0.0000 -0.5406
vn -0.8371 0.0000 -0.5470
vn -0.5954 0.0000 -0.8034
vn -0.5931 -0.0000 -0.8052
vn -0.0396 0.9929 -0.1122
vn -0.0454 0.9970 -0.0632
vn -0.0720 0.9971 -0.0259
vn -0.0698 0.9974 -0.0187
vn 0.6291 -0.0000 0.7773
vn 0.6303 -0.0000 0.7764
vn 0.7913 -0.0000 0.6114
vn 0.7937 -0.0000 0.6083
vn 0.0493 -0.9968 0.0626
vn 0.0398 -0.9953 0.0886
vn 0.0831 -0.9965 0.0133
vn 0.0716 -0.9973 0.0156
vn -0.8747 0.0000 -0.4847
vn -0.8795 -0.0000 -0.4759
vn -0.8371 0.0000 -0.5470
vn -0.8413 0.0000 -0.5406
vn -0.0698 0.9974 -0.0187
vn -0.0720 0.9971 -0.0259
vn -0.0541 0.9979 0.0347
vn -0.0507 0.9979 0.0396
vn 0.7937 -0.0000 0.6083
vn 0.7913 -0.0000 0.6114
vn 0.8274 -0.0000 0.5616
vn 0.8247 -0.0000 0.5656
vn 0.0716 -0.9973 0.0156
vn 0.0831 -0.9965 0.0133
vn 0.0540 -0.9979 -0.0357
vn 0.0441 -0.9985 -0.0338
vn -0.5550 -0.0000 -0.8318
vn -0.5750 -0.0000 -0.8182
vn -0.8795 -0.0000 -0.4759
vn -0.8747 0.0000 -0.4847
vn -0.0507 0.9979 0.0396
vn -0.0541 0.9979 0.0347
vn -0.0472 0.9979 0.0442
vn -0.0454 0.9982 0.0401
vn 0.8247 -0.0000 0.5656
vn 0.8274 -0.0000 0.5616
vn 0.6083 -0.0000 0.7937
vn 0.5922 -0.0000 0.8058
vn 0.0441 -0.9985 -0.0338
vn 0.0540 -0.9979 -0.0357
vn 0.0402 -0.9984 -0.0403
vn 0.0418 -0.9984 -0.0387
# 304 vertex normals

vt 0.4190 0.1743 0.0000
vt 0.4595 0.1743 0.0000
vt 0.5405 0.1743 0.0000
vt 0.5810 0.1743 0.0000
vt 0.4190 0.1824 0.0000
vt 0.4595 0.1824 0.0000
vt 0.5405 0.1824 0.0000
vt 0.5810 0.1824 0.0000
vt 0.4190 0.1905 0.0000
vt 0.4595 0.1905 0.0000
vt 0.5405 0.1905 0.0000
vt 0.5810 0.1905 0.0000
vt 0.4190 0.1985 0.0000
vt 0.4595 0.1985 0.0000
vt 0.5405 0.1985 0.0000
vt 0.5810 0.1985 0.0000
vt 0.4190 0.2066 0.0000
vt 0.4595 0.2066 0.0000
vt 0.5405 0.2066 0.0000
vt 0.5810 0.2066 0.0000
vt 0.4190 0.2147 0.0000
vt 0.4595 0.2147 0.0000
vt 0.5405 0.2147 0.0000
vt 0.5810 0.2147 0.0000
vt 0.4190 0.2228 0.0000
vt 0.4595 0.2228 0.0000
vt 0.5405 0.2228 0.0000
vt 0.5810 0.2228 0.0000
vt 0.4190 0.2308 0.0000
vt 0.4595 0.2308 0.0000
vt 0.5405 0.2308 0.0000
vt 0.5810 0.2308 0.0000
vt 0.4190 0.2389 0.0000
vt 0.4595 0.2389 0.0000
vt 0.5405 0.2389 0.0000
vt 0.5810 0.2389 0.0000
vt 0.4190 0.2470 0.0000
vt 0.4595 0.2470 0.0000
vt 0.5405 0.2470 0.0000
vt 0.5810 0.2470 0.0000
vt 0.4190 0.2551 0.0000
vt 0.4595 0.2551 0.0000
vt 0.5405 0.2551 0.0000
vt 0.5810 0.2551 0.0000
vt 0.4190 0.2631 0.0000
vt 0.4595 0.2631 0.0000
vt 0.5405 0.2631 0.0000
vt 0.5810 0.2631 0.0000
vt 0.4190 0.2712 0.0000
vt 0.4595 0.2712 0.0000
vt 0.5405 0.2712 0.0000
vt 0.5810 0.2712 0.0000
vt 0.4190 0.2793 0.0000
vt 0.4595 0.2793 0.0000
vt 0.5405 0.2793 0.0000
vt 0.5810 0.2793 0.0000
vt 0.4190 0.2874 0.0000
vt 0.4595 0.2874 0.0000
vt 0.5405 0.2874 0.0000
vt 0.5810 0.2874 0.0000
vt 0.4190 0.2954 0.0000
vt 0.4595 0.2954 0.0000
vt 0.5405 0.2954 0.0000
vt 0.5810 0.2954 0.0000
vt 0.4190 0.3035 0.0000
vt 0.4595 0.3035 0.0000
vt 0.5405 0.3035 0.0000
vt 0.5810 0.3035 0.0000
vt 0.4190 0.3116 0.0000
vt 0.4595 0.3116 0.0000
vt 0.5405 0.3116 0.0000
vt 0.5810 0.3116 0.0000
vt 0.4190 0.3197 0.0000
vt 0.4595 0.3197 0.0000
vt 0.5405 0.3197 0.0000
vt 0.5810 0.3197 0.0000
vt 0.4190 0.3277 0.0000
vt 0.4595 0.3277 0.0000
vt 0.5405 0.3277 0.0000
vt 0.5810 0.3277 0.0000
vt 0.3578 0.1820 0.0000
vt 0.3578 0.1744 0.0000
vt 0.6422 0.1828 0.0000
vt 0.6422 0.1903 0.0000
vt 0.3578 0.1981 0.0000
vt 0.3578 0.1906 0.0000
vt 0.3578 0.2062 0.0000
vt 0.3578 0.1987 0.0000
vt 0.3578 0.2143 0.0000
vt 0.3578 0.2067 0.0000
vt 0.6422 0.2151 0.0000
vt 0.6422 0.2226 0.0000
vt 0.3578 0.2304 0.0000
vt 0.3578 0.2229 0.0000
vt 0.3578 0.2385 0.0000
vt 0.3578 0.2310 0.0000
vt 0.6422 0.2393 0.0000
vt 0.6422 0.2469 0.0000
vt 0.3578 0.2547 0.0000
vt 0.3578 0.2471 0.0000
vt 0.3578 0.2627 0.0000
vt 0.3578 0.2552 0.0000
vt 0.3578 0.2708 0.0000
vt 0.3578 0.2633 0.0000
vt 0.3578 0.2789 0.0000
vt 0.3578 0.2713 0.0000
vt 0.6422 0.2797 0.0000
vt 0.6422 0.2872 0.0000
vt 0.3578 0.2950 0.0000
vt 0.3578 0.2875 0.0000
vt 0.3578 0.3031 0.0000
vt 0.3578 0.2956 0.0000
vt 0.3578 0.3112 0.0000
vt 0.3578 0.3036 0.0000
vt 0.3578 0.3193 0.0000
vt 0.3578 0.3117 0.0000
vt 0.3578 0.3274 0.0000
vt 0.3578 0.3198 0.0000
# 118 texture coords

g elastique
usemtl Material__33
s 512
f 5/5/1 8/81/2 4/82/3 1/1/4 
s 1
f 1/1/5 2/2/6 6/6/7 5/5/8 
s 512
f 2/2/9 3/3/10 7/7/11 6/6/12 
s 1
f 3/3/13 4/4/14 8/8/15 7/7/16 
s 512
f 9/84/17 12/12/18 8/8/19 5/83/20 
s 1
f 5/5/21 6/6/22 10/10/23 9/9/24 
s 512
f 6/6/25 7/7/26 11/11/27 10/10/28 
s 1
f 7/7/29 8/8/30 12/12/31 11/11/32 
s 512
f 13/13/33 16/85/34 12/86/35 9/9/36 
s 1
f 9/9/37 10/10/38 14/14/39 13/13/40 
s 512
f 10/10/41 11/11/42 15/15/43 14/14/44 
s 1
f 11/11/45 12/12/46 16/16/47 15/15/48 
s 512
f 17/17/49 20/87/50 16/88/51 13/13/52 
s 1
f 13/13/53 14/14/54 18/18/55 17/17/56 
s 512
f 14/14/57 15/15/58 19/19/59 18/18/60 
s 1
f 15/15/61 16/16/62 20/20/63 19/19/64 
s 512
f 21/21/65 24/89/66 20/90/67 17/17/68 
s 1
f 17/17/69 18/18/70 22/22/71 21/21/72 
s 512
f 18/18/73 19/19/74 23/23/75 22/22/76 
s 1
f 19/19/77 20/20/78 24/24/79 23/23/80 
s 512
f 25/92/81 28/28/82 24/24/83 21/91/84 
s 1
f 21/21/85 22/22/86 26/26/87 25/25/88 
s 512
f 22/22/89 23/23/90 27/27/91 26/26/92 
s 1
f 23/23/93 24/24/94 28/28/95 27/27/96 
s 512
f 29/29/97 32/93/98 28/94/99 25/25/100 
s 1
f 25/25/101 26/26/102 30/30/103 29/29/104 
s 512
f 26/26/105 27/27/106 31/31/107 30/30/108 
s 1
f 27/27/109 28/28/110 32/32/111 31/31/112 
s 512
f 33/33/113 36/95/114 32/96/115 29/29/116 
s 1
f 29/29/117 30/30/118 34/34/119 33/33/120 
s 512
f 30/30/121 31/31/122 35/35/123 34/34/124 
s 1
f 31/31/125 32/32/126 36/36/127 35/35/128 
s 512
f 37/98/129 40/40/130 36/36/131 33/97/132 
s 1
f 33/33/133 34/34/134 38/38/135 37/37/136 
s 512
f 34/34/137 35/35/138 39/39/139 38/38/140 
s 1
f 35/35/141 36/36/142 40/40/143 39/39/144 
s 512
f 41/41/145 44/99/146 40/100/147 37/37/148 
s 1
f 37/37/149 38/38/150 42/42/151 41/41/152 
s 512
f 38/38/153 39/39/154 43/43/155 42/42/156 
s 1
f 39/39/157 40/40/158 44/44/159 43/43/160 
s 512
f 45/45/161 48/101/162 44/102/163 41/41/164 
s 1
f 41/41/165 42/42/166 46/46/167 45/45/168 
s 512
f 42/42/169 43/43/170 47/47/171 46/46/172 
s 1
f 43/43/173 44/44/174 48/48/175 47/47/176 
s 512
f 49/49/177 52/103/178 48/104/179 45/45/180 
s 1
f 45/45/181 46/46/182 50/50/183 49/49/184 
s 512
f 46/46/185 47/47/186 51/51/187 50/50/188 
s 1
f 47/47/189 48/48/190 52/52/191 51/51/192 
s 512
f 53/53/193 56/105/194 52/106/195 49/49/196 
s 1
f 49/49/197 50/50/198 54/54/199 53/53/200 
s 512
f 50/50/201 51/51/202 55/55/203 54/54/204 
s 1
f 51/51/205 52/52/206 56/56/207 55/55/208 
s 512
f 57/108/209 60/60/210 56/56/211 53/107/212 
s 1
f 53/53/213 54/54/214 58/58/215 57/57/216 
s 512
f 54/54/217 55/55/218 59/59/219 58/58/220 
s 1
f 55/55/221 56/56/222 60/60/223 59/59/224 
s 512
f 61/61/225 64/109/226 60/110/227 57/57/228 
s 1
f 57/57/229 58/58/230 62/62/231 61/61/232 
s 512
f 58/58/233 59/59/234 63/63/235 62/62/236 
s 1
f 59/59/237 60/60/238 64/64/239 63/63/240 
s 512
f 65/65/241 68/111/242 64/112/243 61/61/244 
s 1
f 61/61/245 62/62/246 66/66/247 65/65/248 
s 512
f 62/62/249 63/63/250 67/67/251 66/66/252 
s 1
f 63/63/253 64/64/254 68/68/255 67/67/256 
s 512
f 69/69/257 72/113/258 68/114/259 65/65/260 
s 1
f 65/65/261 66/66/262 70/70/263 69/69/264 
s 512
f 66/66/265 67/67/266 71/71/267 70/70/268 
s 1
f 67/67/269 68/68/270 72/72/271 71/71/272 
s 512
f 73/73/273 76/115/274 72/116/275 69/69/276 
s 1
f 69/69/277 70/70/278 74/74/279 73/73/280 
s 512
f 70/70/281 71/71/282 75/75/283 74/74/284 
s 1
f 71/71/285 72/72/286 76/76/287 75/75/288 
s 512
f 1/77/289 4/117/290 76/118/291 73/73/292 
s 1
f 73/73/293 74/74/294 2/78/295 1/77/296 
s 512
f 74/74/297 75/75/298 3/79/299 2/78/300 
s 1
f 75/75/301 76/76/302 4/80/303 3/79/304 
# 76 polygons

