# 3ds Max Wavefront OBJ Exporter v0.97b - (c)2007 guruware
# File Created: 08.03.2014 10:26:35

mtllib Pattate_Munitions.mtl

#
# object potate
#

v  10.6782 6.5497 23.0840
v  24.7187 -1.8735 3.5458
v  -20.9217 -11.0980 10.8683
v  -9.3219 -20.8844 -9.6134
v  9.3511 24.8707 14.4965
v  23.3916 16.4474 -5.0417
v  -29.8925 2.9541 -0.6740
v  -18.2927 -6.8323 -21.1558
v  2.6970 -10.0406 7.9705
v  -6.3858 19.0454 -10.5539
v  30.3900 12.1161 19.9974
v  9.1809 -3.1647 -18.7359
v  -30.8093 -22.0622 -3.6606
v  -12.8697 12.1694 16.1525
v  -6.5920 -0.5323 18.2631
v  -17.6481 -21.7195 2.2512
v  9.5537 -11.7601 -7.2827
v  22.1489 0.5061 17.6356
v  21.7703 23.8221 7.7575
v  2.9032 9.5371 -20.8465
v  -30.1035 -5.1482 -12.2956
v  -13.2426 20.7649 4.6993
v  31.0338 6.8725 0.5121
v  12.8854 17.4557 24.8810
v  -16.7297 -19.8022 -17.9520
v  -31.0219 -7.0654 7.9077
v  3.1052 3.9957 21.4333
v  -15.3048 -6.2858 14.3165
v  -20.2433 -16.8593 7.7433
v  -13.4764 -22.7811 -4.4050
v  -1.1152 -17.3110 -9.7142
v  19.0156 -6.0685 -1.9321
v  24.9442 -1.3242 10.4473
v  16.4850 3.6526 21.9415
v  15.7350 25.3234 12.4352
v  24.1942 20.3467 0.9411
v  15.5658 14.9869 -13.2404
v  -9.9541 0.7347 -23.1057
v  -24.7343 -6.9787 -17.9734
v  -31.5012 -1.0569 -5.8251
v  -24.1437 11.7599 0.9250
v  -0.3446 25.0511 10.1250
v  28.9150 1.6010 2.4435
v  28.5367 12.5306 -2.3510
v  11.7643 22.3983 20.4391
v  12.1425 11.4686 25.2335
v  -12.9412 -21.7747 -13.7370
v  -18.6191 -13.8048 -20.5802
v  -26.3584 -10.0332 10.3501
v  -32.0363 -2.0633 3.5069
v  -2.0096 -6.0027 14.3120
v  -7.9759 -16.2594 4.5350
v  6.7932 -12.1242 0.3842
v  13.2020 -4.4321 12.7218
v  9.0900 24.5676 -2.3904
v  -1.6792 15.0075 -16.8955
v  -20.6303 7.9696 -13.8794
v  -10.4821 21.1290 -2.9677
v  27.9551 5.9101 20.3769
v  33.4008 9.3916 11.5502
v  28.6607 18.6380 15.7632
v  23.2149 15.1566 24.5899
v  10.2530 -8.4552 -13.8662
v  -4.6863 -11.7602 -21.1255
v  6.6271 3.1562 -21.2614
v  22.1266 3.2142 -10.7603
v  -25.3691 -23.8701 -0.2368
v  -32.9182 -16.1924 2.8903
v  -32.9166 -15.7514 -8.0409
v  -25.3675 -23.4291 -11.1681
v  -10.3159 5.8485 18.6779
v  0.1653 16.9214 21.0917
v  -13.9419 17.4599 11.2828
v  -23.9199 3.4703 11.7810
v  7.9447 -0.9496 18.1078
v  -11.5493 -11.8366 10.5719
v  -3.8529 -17.8735 -2.5293
v  16.6534 -6.4212 5.3979
v  3.8282 25.9963 3.8508
v  12.5369 20.5247 -8.8592
v  -15.3883 4.9292 -19.6543
v  -23.0848 10.9661 -6.5531
v  21.4326 9.0881 24.6829
v  30.8280 3.7252 12.4719
v  31.2197 15.5789 7.9430
v  21.8243 20.9418 20.1540
v  21.3112 -2.3720 -7.2032
v  -1.9979 -15.3896 -16.2139
v  -6.9267 -5.6466 -23.5309
v  19.5523 9.1412 -13.2949
v  -20.5758 -24.9826 -7.3994
v  -27.6720 -18.3357 5.7003
v  -34.4805 -10.5031 -1.6120
v  -27.3843 -17.1500 -14.7117
v  -20.0109 -1.2607 14.4486
v  0.9292 10.4339 22.5435
v  -0.8296 21.9471 16.4518
v  -24.9397 8.4823 7.1315
# 98 vertices

vn -0.0576 -0.4459 0.8932
vn -0.1026 -0.4099 0.9063
vn 0.0560 -0.6753 0.7355
vn 0.0584 -0.5995 0.7983
vn -0.1026 -0.4099 0.9063
vn -0.1313 -0.3983 0.9078
vn 0.0987 -0.6721 0.7338
vn 0.0560 -0.6753 0.7355
vn 0.0584 -0.5995 0.7983
vn 0.0560 -0.6753 0.7355
vn 0.2085 -0.8353 0.5087
vn 0.3004 -0.7747 0.5564
vn 0.0560 -0.6753 0.7355
vn 0.0987 -0.6721 0.7338
vn 0.2564 -0.8162 0.5178
vn 0.2085 -0.8353 0.5087
vn -0.1468 -0.4092 0.9006
vn -0.1641 -0.4280 0.8888
vn -0.0076 -0.6287 0.7776
vn 0.1172 -0.6446 0.7555
vn 0.1172 -0.6446 0.7555
vn -0.0076 -0.6287 0.7776
vn 0.1833 -0.8419 0.5076
vn 0.2999 -0.7935 0.5295
vn -0.1313 -0.3983 0.9078
vn -0.1468 -0.4092 0.9006
vn 0.1172 -0.6446 0.7555
vn 0.0987 -0.6721 0.7338
vn 0.0987 -0.6721 0.7338
vn 0.1172 -0.6446 0.7555
vn 0.2999 -0.7935 0.5295
vn 0.2564 -0.8162 0.5178
vn 0.3907 -0.9187 -0.0583
vn 0.4530 -0.8843 -0.1131
vn 0.3999 -0.8840 0.2423
vn 0.3344 -0.9287 0.1601
vn 0.4530 -0.8843 -0.1131
vn 0.5219 -0.8444 -0.1206
vn 0.3910 -0.8845 0.2544
vn 0.3999 -0.8840 0.2423
vn 0.3344 -0.9287 0.1601
vn 0.3999 -0.8840 0.2423
vn 0.2999 -0.7935 0.5295
vn 0.1833 -0.8419 0.5076
vn 0.3999 -0.8840 0.2423
vn 0.3910 -0.8845 0.2544
vn 0.2564 -0.8162 0.5178
vn 0.2999 -0.7935 0.5295
vn 0.5781 -0.8119 -0.0814
vn 0.6129 -0.7895 -0.0321
vn 0.5100 -0.8299 0.2261
vn 0.3922 -0.8873 0.2428
vn 0.3922 -0.8873 0.2428
vn 0.5100 -0.8299 0.2261
vn 0.3004 -0.7747 0.5564
vn 0.2085 -0.8353 0.5087
vn 0.5219 -0.8444 -0.1206
vn 0.5781 -0.8119 -0.0814
vn 0.3922 -0.8873 0.2428
vn 0.3910 -0.8845 0.2544
vn 0.3910 -0.8845 0.2544
vn 0.3922 -0.8873 0.2428
vn 0.2085 -0.8353 0.5087
vn 0.2564 -0.8162 0.5178
vn -0.0645 0.9513 0.3014
vn 0.1689 0.9733 0.1552
vn -0.0895 0.9901 -0.1084
vn -0.2574 0.9437 0.2079
vn 0.1689 0.9733 0.1552
vn 0.4310 0.8986 -0.0824
vn 0.0944 0.9343 -0.3438
vn -0.0895 0.9901 -0.1084
vn -0.2574 0.9437 0.2079
vn -0.0895 0.9901 -0.1084
vn -0.3870 0.8813 -0.2713
vn -0.5130 0.8530 0.0963
vn -0.0895 0.9901 -0.1084
vn 0.0944 0.9343 -0.3438
vn -0.2530 0.8151 -0.5212
vn -0.3870 0.8813 -0.2713
vn 0.5743 0.7348 -0.3609
vn 0.5894 0.5730 -0.5694
vn 0.4062 0.5327 -0.7425
vn 0.2350 0.7936 -0.5613
vn 0.2350 0.7936 -0.5613
vn 0.4062 0.5327 -0.7425
vn 0.1220 0.4093 -0.9042
vn -0.0973 0.6799 -0.7269
vn 0.4310 0.8986 -0.0824
vn 0.5743 0.7348 -0.3609
vn 0.2350 0.7936 -0.5613
vn 0.0944 0.9343 -0.3438
vn 0.0944 0.9343 -0.3438
vn 0.2350 0.7936 -0.5613
vn -0.0973 0.6799 -0.7269
vn -0.2530 0.8151 -0.5212
vn -0.3496 0.0493 -0.9356
vn -0.5895 0.1073 -0.8006
vn -0.3930 0.4447 -0.8049
vn -0.1603 0.2177 -0.9628
vn -0.5895 0.1073 -0.8006
vn -0.8089 0.2188 -0.5457
vn -0.5685 0.5681 -0.5950
vn -0.3930 0.4447 -0.8049
vn -0.1603 0.2177 -0.9628
vn -0.3930 0.4447 -0.8049
vn -0.0973 0.6799 -0.7269
vn 0.1220 0.4093 -0.9042
vn -0.3930 0.4447 -0.8049
vn -0.5685 0.5681 -0.5950
vn -0.2530 0.8151 -0.5212
vn -0.0973 0.6799 -0.7269
vn -0.8948 0.3775 -0.2386
vn -0.8691 0.4945 -0.0062
vn -0.7381 0.6743 0.0237
vn -0.6675 0.6660 -0.3328
vn -0.6675 0.6660 -0.3328
vn -0.7381 0.6743 0.0237
vn -0.5130 0.8530 0.0963
vn -0.3870 0.8813 -0.2713
vn -0.8089 0.2188 -0.5457
vn -0.8948 0.3775 -0.2386
vn -0.6675 0.6660 -0.3328
vn -0.5685 0.5681 -0.5950
vn -0.5685 0.5681 -0.5950
vn -0.6675 0.6660 -0.3328
vn -0.3870 0.8813 -0.2713
vn -0.2530 0.8151 -0.5212
vn -0.0576 -0.4459 0.8932
vn 0.0584 -0.5995 0.7983
vn 0.2181 -0.2888 0.9322
vn -0.0962 -0.1254 0.9874
vn 0.0584 -0.5995 0.7983
vn 0.3004 -0.7747 0.5564
vn 0.5800 -0.4796 0.6585
vn 0.2181 -0.2888 0.9322
vn -0.0962 -0.1254 0.9874
vn 0.2181 -0.2888 0.9322
vn 0.3737 0.2899 0.8811
vn -0.0645 0.3988 0.9148
vn 0.2181 -0.2888 0.9322
vn 0.5800 -0.4796 0.6585
vn 0.8048 0.1190 0.5815
vn 0.3737 0.2899 0.8811
vn 0.5100 -0.8299 0.2261
vn 0.6129 -0.7895 -0.0321
vn 0.7769 -0.6034 -0.1800
vn 0.7838 -0.5837 0.2121
vn 0.7838 -0.5837 0.2121
vn 0.7769 -0.6034 -0.1800
vn 0.9216 -0.1294 -0.3659
vn 0.9959 -0.0298 0.0857
vn 0.3004 -0.7747 0.5564
vn 0.5100 -0.8299 0.2261
vn 0.7838 -0.5837 0.2121
vn 0.5800 -0.4796 0.6585
vn 0.5800 -0.4796 0.6585
vn 0.7838 -0.5837 0.2121
vn 0.9959 -0.0298 0.0857
vn 0.8048 0.1190 0.5815
vn 0.5894 0.5730 -0.5694
vn 0.5743 0.7348 -0.3609
vn 0.8597 0.4903 -0.1433
vn 0.7963 0.3378 -0.5019
vn 0.5743 0.7348 -0.3609
vn 0.4310 0.8986 -0.0824
vn 0.7095 0.6588 0.2501
vn 0.8597 0.4903 -0.1433
vn 0.7963 0.3378 -0.5019
vn 0.8597 0.4903 -0.1433
vn 0.9959 -0.0298 0.0857
vn 0.9216 -0.1294 -0.3659
vn 0.8597 0.4903 -0.1433
vn 0.7095 0.6588 0.2501
vn 0.8048 0.1190 0.5815
vn 0.9959 -0.0298 0.0857
vn 0.1689 0.9733 0.1552
vn -0.0645 0.9513 0.3014
vn -0.0468 0.7976 0.6013
vn 0.3461 0.7793 0.5223
vn 0.3461 0.7793 0.5223
vn -0.0468 0.7976 0.6013
vn -0.0645 0.3988 0.9148
vn 0.3737 0.2899 0.8811
vn 0.4310 0.8986 -0.0824
vn 0.1689 0.9733 0.1552
vn 0.3461 0.7793 0.5223
vn 0.7095 0.6588 0.2501
vn 0.7095 0.6588 0.2501
vn 0.3461 0.7793 0.5223
vn 0.3737 0.2899 0.8811
vn 0.8048 0.1190 0.5815
vn 0.6129 -0.7895 -0.0321
vn 0.5781 -0.8119 -0.0814
vn 0.6883 -0.5959 -0.4136
vn 0.7769 -0.6034 -0.1800
vn 0.5781 -0.8119 -0.0814
vn 0.5219 -0.8444 -0.1206
vn 0.5658 -0.6408 -0.5189
vn 0.6883 -0.5959 -0.4136
vn 0.7769 -0.6034 -0.1800
vn 0.6883 -0.5959 -0.4136
vn 0.7188 -0.2248 -0.6579
vn 0.9216 -0.1294 -0.3659
vn 0.6883 -0.5959 -0.4136
vn 0.5658 -0.6408 -0.5189
vn 0.4990 -0.3349 -0.7993
vn 0.7188 -0.2248 -0.6579
vn 0.4530 -0.8843 -0.1131
vn 0.3907 -0.9187 -0.0583
vn 0.2614 -0.8916 -0.3698
vn 0.4256 -0.7406 -0.5199
vn 0.4256 -0.7406 -0.5199
vn 0.2614 -0.8916 -0.3698
vn -0.0370 -0.6729 -0.7389
vn 0.2591 -0.4792 -0.8386
vn 0.5219 -0.8444 -0.1206
vn 0.4530 -0.8843 -0.1131
vn 0.4256 -0.7406 -0.5199
vn 0.5658 -0.6408 -0.5189
vn 0.5658 -0.6408 -0.5189
vn 0.4256 -0.7406 -0.5199
vn 0.2591 -0.4792 -0.8386
vn 0.4990 -0.3349 -0.7993
vn -0.3496 0.0493 -0.9356
vn -0.1603 0.2177 -0.9628
vn 0.0589 -0.1340 -0.9892
vn -0.2660 -0.2760 -0.9236
vn -0.1603 0.2177 -0.9628
vn 0.1220 0.4093 -0.9042
vn 0.3482 0.0274 -0.9370
vn 0.0589 -0.1340 -0.9892
vn -0.2660 -0.2760 -0.9236
vn 0.0589 -0.1340 -0.9892
vn 0.2591 -0.4792 -0.8386
vn -0.0370 -0.6729 -0.7389
vn 0.0589 -0.1340 -0.9892
vn 0.3482 0.0274 -0.9370
vn 0.4990 -0.3349 -0.7993
vn 0.2591 -0.4792 -0.8386
vn 0.4062 0.5327 -0.7425
vn 0.5894 0.5730 -0.5694
vn 0.7963 0.3378 -0.5019
vn 0.6073 0.1739 -0.7752
vn 0.6073 0.1739 -0.7752
vn 0.7963 0.3378 -0.5019
vn 0.9216 -0.1294 -0.3659
vn 0.7188 -0.2248 -0.6579
vn 0.1220 0.4093 -0.9042
vn 0.4062 0.5327 -0.7425
vn 0.6073 0.1739 -0.7752
vn 0.3482 0.0274 -0.9370
vn 0.3482 0.0274 -0.9370
vn 0.6073 0.1739 -0.7752
vn 0.7188 -0.2248 -0.6579
vn 0.4990 -0.3349 -0.7993
vn 0.3907 -0.9187 -0.0583
vn 0.3344 -0.9287 0.1601
vn 0.0430 -0.9967 -0.0688
vn 0.2614 -0.8916 -0.3698
vn 0.3344 -0.9287 0.1601
vn 0.1833 -0.8419 0.5076
vn -0.1953 -0.9119 0.3609
vn 0.0430 -0.9967 -0.0688
vn 0.2614 -0.8916 -0.3698
vn 0.0430 -0.9967 -0.0688
vn -0.3842 -0.8112 -0.4409
vn -0.0370 -0.6729 -0.7389
vn 0.0430 -0.9967 -0.0688
vn -0.1953 -0.9119 0.3609
vn -0.6976 -0.7164 0.0112
vn -0.3842 -0.8112 -0.4409
vn -0.0076 -0.6287 0.7776
vn -0.1641 -0.4280 0.8888
vn -0.3874 -0.2810 0.8781
vn -0.3526 -0.6049 0.7140
vn -0.3526 -0.6049 0.7140
vn -0.3874 -0.2810 0.8781
vn -0.7681 0.0031 0.6403
vn -0.8289 -0.3734 0.4165
vn 0.1833 -0.8419 0.5076
vn -0.0076 -0.6287 0.7776
vn -0.3526 -0.6049 0.7140
vn -0.1953 -0.9119 0.3609
vn -0.1953 -0.9119 0.3609
vn -0.3526 -0.6049 0.7140
vn -0.8289 -0.3734 0.4165
vn -0.6976 -0.7164 0.0112
vn -0.8691 0.4945 -0.0062
vn -0.8948 0.3775 -0.2386
vn -0.9995 0.0302 0.0085
vn -0.9173 0.3105 0.2495
vn -0.8948 0.3775 -0.2386
vn -0.8089 0.2188 -0.5457
vn -0.9070 -0.2296 -0.3531
vn -0.9995 0.0302 0.0085
vn -0.9173 0.3105 0.2495
vn -0.9995 0.0302 0.0085
vn -0.8289 -0.3734 0.4165
vn -0.7681 0.0031 0.6403
vn -0.9995 0.0302 0.0085
vn -0.9070 -0.2296 -0.3531
vn -0.6976 -0.7164 0.0112
vn -0.8289 -0.3734 0.4165
vn -0.5895 0.1073 -0.8006
vn -0.3496 0.0493 -0.9356
vn -0.2660 -0.2760 -0.9236
vn -0.6200 -0.3333 -0.7103
vn -0.6200 -0.3333 -0.7103
vn -0.2660 -0.2760 -0.9236
vn -0.0370 -0.6729 -0.7389
vn -0.3842 -0.8112 -0.4409
vn -0.8089 0.2188 -0.5457
vn -0.5895 0.1073 -0.8006
vn -0.6200 -0.3333 -0.7103
vn -0.9070 -0.2296 -0.3531
vn -0.9070 -0.2296 -0.3531
vn -0.6200 -0.3333 -0.7103
vn -0.3842 -0.8112 -0.4409
vn -0.6976 -0.7164 0.0112
vn -0.1641 -0.4280 0.8888
vn -0.1468 -0.4092 0.9006
vn -0.3946 -0.0878 0.9146
vn -0.3874 -0.2810 0.8781
vn -0.1468 -0.4092 0.9006
vn -0.1313 -0.3983 0.9078
vn -0.3628 -0.0122 0.9318
vn -0.3946 -0.0878 0.9146
vn -0.3874 -0.2810 0.8781
vn -0.3946 -0.0878 0.9146
vn -0.6295 0.2482 0.7363
vn -0.7681 0.0031 0.6403
vn -0.3946 -0.0878 0.9146
vn -0.3628 -0.0122 0.9318
vn -0.5067 0.3593 0.7837
vn -0.6295 0.2482 0.7363
vn -0.1026 -0.4099 0.9063
vn -0.0576 -0.4459 0.8932
vn -0.0962 -0.1254 0.9874
vn -0.2815 -0.0190 0.9594
vn -0.2815 -0.0190 0.9594
vn -0.0962 -0.1254 0.9874
vn -0.0645 0.3988 0.9148
vn -0.3530 0.4112 0.8404
vn -0.1313 -0.3983 0.9078
vn -0.1026 -0.4099 0.9063
vn -0.2815 -0.0190 0.9594
vn -0.3628 -0.0122 0.9318
vn -0.3628 -0.0122 0.9318
vn -0.2815 -0.0190 0.9594
vn -0.3530 0.4112 0.8404
vn -0.5067 0.3593 0.7837
vn -0.0645 0.9513 0.3014
vn -0.2574 0.9437 0.2079
vn -0.3405 0.7491 0.5682
vn -0.0468 0.7976 0.6013
vn -0.2574 0.9437 0.2079
vn -0.5130 0.8530 0.0963
vn -0.5617 0.6615 0.4969
vn -0.3405 0.7491 0.5682
vn -0.0468 0.7976 0.6013
vn -0.3405 0.7491 0.5682
vn -0.3530 0.4112 0.8404
vn -0.0645 0.3988 0.9148
vn -0.3405 0.7491 0.5682
vn -0.5617 0.6615 0.4969
vn -0.5067 0.3593 0.7837
vn -0.3530 0.4112 0.8404
vn -0.7381 0.6743 0.0237
vn -0.8691 0.4945 -0.0062
vn -0.9173 0.3105 0.2495
vn -0.7497 0.5202 0.4090
vn -0.7497 0.5202 0.4090
vn -0.9173 0.3105 0.2495
vn -0.7681 0.0031 0.6403
vn -0.6295 0.2482 0.7363
vn -0.5130 0.8530 0.0963
vn -0.7381 0.6743 0.0237
vn -0.7497 0.5202 0.4090
vn -0.5617 0.6615 0.4969
vn -0.5617 0.6615 0.4969
vn -0.7497 0.5202 0.4090
vn -0.6295 0.2482 0.7363
vn -0.5067 0.3593 0.7837
# 384 vertex normals

vt 0.2113 0.4498 0.0000
vt 0.1922 0.4538 0.0000
vt 0.1939 0.4354 0.0000
vt 0.2189 0.4361 0.0000
vt 0.1657 0.4558 0.0000
vt 0.1655 0.4363 0.0000
vt 0.1963 0.4156 0.0000
vt 0.2234 0.4180 0.0000
vt 0.1654 0.4148 0.0000
vt 0.1391 0.4541 0.0000
vt 0.1199 0.4505 0.0000
vt 0.1121 0.4368 0.0000
vt 0.1371 0.4358 0.0000
vt 0.1074 0.4189 0.0000
vt 0.1344 0.4161 0.0000
vt 0.1159 0.3848 0.0000
vt 0.1360 0.3776 0.0000
vt 0.1354 0.3961 0.0000
vt 0.1095 0.4001 0.0000
vt 0.1651 0.3738 0.0000
vt 0.1652 0.3934 0.0000
vt 0.1942 0.3772 0.0000
vt 0.2145 0.3840 0.0000
vt 0.2210 0.3992 0.0000
vt 0.1950 0.3957 0.0000
vt 0.2164 0.4135 0.0000
vt 0.2274 0.4201 0.0000
vt 0.2007 0.4313 0.0000
vt 0.1960 0.4171 0.0000
vt 0.2383 0.4309 0.0000
vt 0.2077 0.4471 0.0000
vt 0.1672 0.4355 0.0000
vt 0.1669 0.4195 0.0000
vt 0.1675 0.4541 0.0000
vt 0.2454 0.4472 0.0000
vt 0.2480 0.4664 0.0000
vt 0.2167 0.4862 0.0000
vt 0.2115 0.4659 0.0000
vt 0.1690 0.4971 0.0000
vt 0.1681 0.4748 0.0000
vt 0.0885 0.4709 0.0000
vt 0.0894 0.4508 0.0000
vt 0.1240 0.4680 0.0000
vt 0.1208 0.4895 0.0000
vt 0.0958 0.4338 0.0000
vt 0.1269 0.4487 0.0000
vt 0.1062 0.4226 0.0000
vt 0.1169 0.4154 0.0000
vt 0.1376 0.4182 0.0000
vt 0.1334 0.4327 0.0000
vt 0.2548 0.3854 0.0000
vt 0.2332 0.3773 0.0000
vt 0.2712 0.3946 0.0000
vt 0.2495 0.3965 0.0000
vt 0.2302 0.3907 0.0000
vt 0.2632 0.4045 0.0000
vt 0.3118 0.4310 0.0000
vt 0.2873 0.4079 0.0000
vt 0.2922 0.4452 0.0000
vt 0.2759 0.4176 0.0000
vt 0.2641 0.4295 0.0000
vt 0.2711 0.4579 0.0000
vt 0.2543 0.4153 0.0000
vt 0.2240 0.4027 0.0000
vt 0.2419 0.4071 0.0000
vt 0.2019 0.4252 0.0000
vt 0.1682 0.4228 0.0000
vt 0.2056 0.4100 0.0000
vt 0.1679 0.4060 0.0000
vt 0.1048 0.4368 0.0000
vt 0.1346 0.4265 0.0000
vt 0.0969 0.4239 0.0000
vt 0.1304 0.4114 0.0000
vt 0.1301 0.3953 0.0000
vt 0.0967 0.4067 0.0000
vt 0.1676 0.3893 0.0000
vt 0.2052 0.3938 0.0000
vt 0.0460 0.4121 0.0000
vt 0.0620 0.3982 0.0000
vt 0.0577 0.4214 0.0000
vt 0.0701 0.4080 0.0000
vt 0.0998 0.3794 0.0000
vt 0.0782 0.3887 0.0000
vt 0.1028 0.3929 0.0000
vt 0.0837 0.3995 0.0000
vt 0.0914 0.4100 0.0000
vt 0.1091 0.4048 0.0000
vt 0.0793 0.4185 0.0000
vt 0.0698 0.4329 0.0000
vt 0.1304 0.3737 0.0000
vt 0.1662 0.3710 0.0000
vt 0.1317 0.3900 0.0000
vt 0.1663 0.3890 0.0000
vt 0.2019 0.3726 0.0000
vt 0.2009 0.3887 0.0000
vt 0.1976 0.4031 0.0000
vt 0.1666 0.4047 0.0000
vt 0.1355 0.4043 0.0000
vt 0.2595 0.3649 0.0000
vt 0.2851 0.3765 0.0000
vt 0.0742 0.3681 0.0000
vt 0.0485 0.3798 0.0000
vt 0.1153 0.4460 0.0000
vt 0.0043 0.4210 0.0000
vt 0.1376 0.4428 0.0000
vt 0.0246 0.3985 0.0000
vt 0.1684 0.4407 0.0000
vt 0.1993 0.4417 0.0000
vt 0.3311 0.4150 0.0000
vt 0.2220 0.4441 0.0000
vt 0.3089 0.3947 0.0000
vt 0.2322 0.4343 0.0000
vt 0.2396 0.4211 0.0000
vt 0.2391 0.4040 0.0000
vt 0.0232 0.4373 0.0000
vt 0.0431 0.4504 0.0000
vt 0.0646 0.4622 0.0000
vt 0.2349 0.3616 0.0000
vt 0.2054 0.3523 0.0000
vt 0.1663 0.3485 0.0000
vt 0.1274 0.3528 0.0000
vt 0.0992 0.3634 0.0000
vt 0.2324 0.3878 0.0000
vt 0.2060 0.3768 0.0000
vt 0.1672 0.3716 0.0000
vt 0.1024 0.3899 0.0000
vt 0.1287 0.3783 0.0000
# 127 texture coords

g potate
usemtl Material__33
s 1
f 1/1/1 27/2/2 75/3/3 34/4/4 
f 27/2/5 15/5/6 51/6/7 75/3/8 
f 34/4/9 75/3/10 54/7/11 18/8/12 
f 75/3/13 51/6/14 9/9/15 54/7/16 
f 28/10/17 3/11/18 29/12/19 76/13/20 
f 76/13/21 29/12/22 16/14/23 52/15/24 
f 15/5/25 28/10/26 76/13/27 51/6/28 
f 51/6/29 76/13/30 52/15/31 9/9/32 
f 4/16/33 31/17/34 77/18/35 30/19/36 
f 31/17/37 17/20/38 53/21/39 77/18/40 
f 30/19/41 77/18/42 52/15/43 16/14/44 
f 77/18/45 53/21/46 9/9/47 52/15/48 
f 32/22/49 2/23/50 33/24/51 78/25/52 
f 78/25/53 33/24/54 18/8/55 54/7/56 
f 17/20/57 32/22/58 78/25/59 53/21/60 
f 53/21/61 78/25/62 54/7/63 9/9/64 
f 5/26/65 35/27/66 79/28/67 42/29/68 
f 35/27/69 19/30/70 55/31/71 79/28/72 
f 42/29/73 79/28/74 58/32/75 22/33/76 
f 79/28/77 55/31/78 10/34/79 58/32/80 
f 36/35/81 6/36/82 37/37/83 80/38/84 
f 80/38/85 37/37/86 20/39/87 56/40/88 
f 19/30/89 36/35/90 80/38/91 55/31/92 
f 55/31/93 80/38/94 56/40/95 10/34/96 
f 8/41/97 39/42/98 81/43/99 38/44/100 
f 39/42/101 21/45/102 57/46/103 81/43/104 
f 38/44/105 81/43/106 56/40/107 20/39/108 
f 81/43/109 57/46/110 10/34/111 56/40/112 
f 40/47/113 7/48/114 41/49/115 82/50/116 
f 82/50/117 41/49/118 22/33/119 58/32/120 
f 21/45/121 40/47/122 82/50/123 57/46/124 
f 57/46/125 82/50/126 58/32/127 10/34/128 
f 1/118/129 34/99/130 83/51/131 46/52/132 
f 34/99/133 18/100/134 59/53/135 83/51/136 
f 46/52/137 83/51/138 62/54/139 24/55/140 
f 83/51/141 59/53/142 11/56/143 62/54/144 
f 33/111/145 2/109/146 43/57/147 84/58/148 
f 84/58/149 43/57/150 23/59/151 60/60/152 
f 18/100/153 33/111/154 84/58/155 59/53/156 
f 59/53/157 84/58/158 60/60/159 11/56/160 
f 6/36/161 36/35/162 85/61/163 44/62/164 
f 36/35/165 19/30/166 61/63/167 85/61/168 
f 44/62/169 85/61/170 60/60/171 23/59/172 
f 85/61/173 61/63/174 11/56/175 60/60/176 
f 35/27/177 5/26/178 45/64/179 86/65/180 
f 86/65/181 45/64/182 24/55/183 62/54/184 
f 19/30/185 35/27/186 86/65/187 61/63/188 
f 61/63/189 86/65/190 62/54/191 11/56/192 
f 2/110/193 32/108/194 87/66/195 43/112/196 
f 32/108/197 17/107/198 63/67/199 87/66/200 
f 43/112/201 87/66/202 66/68/203 23/113/204 
f 87/66/205 63/67/206 12/69/207 66/68/208 
f 31/105/209 4/103/210 47/70/211 88/71/212 
f 88/71/213 47/70/214 25/72/215 64/73/216 
f 17/107/217 31/105/218 88/71/219 63/67/220 
f 63/67/221 88/71/222 64/73/223 12/69/224 
f 8/126/225 38/127/226 89/74/227 48/75/228 
f 38/127/229 20/125/230 65/76/231 89/74/232 
f 48/75/233 89/74/234 64/73/235 25/72/236 
f 89/74/237 65/76/238 12/69/239 64/73/240 
f 37/124/241 6/123/242 44/114/243 90/77/244 
f 90/77/245 44/114/246 23/113/247 66/68/248 
f 20/125/249 37/124/250 90/77/251 65/76/252 
f 65/76/253 90/77/254 66/68/255 12/69/256 
f 4/104/257 30/106/258 91/78/259 47/115/260 
f 30/106/261 16/102/262 67/79/263 91/78/264 
f 47/115/265 91/78/266 70/80/267 25/116/268 
f 91/78/269 67/79/270 13/81/271 70/80/272 
f 29/101/273 3/122/274 49/82/275 92/83/276 
f 92/83/277 49/82/278 26/84/279 68/85/280 
f 16/102/281 29/101/282 92/83/283 67/79/284 
f 67/79/285 92/83/286 68/85/287 13/81/288 
f 7/48/289 40/47/290 93/86/291 50/87/292 
f 40/47/293 21/45/294 69/88/295 93/86/296 
f 50/87/297 93/86/298 68/85/299 26/84/300 
f 93/86/301 69/88/302 13/81/303 68/85/304 
f 39/42/305 8/41/306 48/117/307 94/89/308 
f 94/89/309 48/117/310 25/116/311 70/80/312 
f 21/45/313 39/42/314 94/89/315 69/88/316 
f 69/88/317 94/89/318 70/80/319 13/81/320 
f 3/122/321 28/121/322 95/90/323 49/82/324 
f 28/121/325 15/120/326 71/91/327 95/90/328 
f 49/82/329 95/90/330 74/92/331 26/84/332 
f 95/90/333 71/91/334 14/93/335 74/92/336 
f 27/119/337 1/118/338 46/52/339 96/94/340 
f 96/94/341 46/52/342 24/55/343 72/95/344 
f 15/120/345 27/119/346 96/94/347 71/91/348 
f 71/91/349 96/94/350 72/95/351 14/93/352 
f 5/26/353 42/29/354 97/96/355 45/64/356 
f 42/29/357 22/33/358 73/97/359 97/96/360 
f 45/64/361 97/96/362 72/95/363 24/55/364 
f 97/96/365 73/97/366 14/93/367 72/95/368 
f 41/49/369 7/48/370 50/87/371 98/98/372 
f 98/98/373 50/87/374 26/84/375 74/92/376 
f 22/33/377 41/49/378 98/98/379 73/97/380 
f 73/97/381 98/98/382 74/92/383 14/93/384 
# 96 polygons

