# 3ds Max Wavefront OBJ Exporter v0.97b - (c)2007 guruware
# File Created: 08.03.2014 10:24:21

mtllib PlancheBoiS_R.mtl

#
# object planche_bois
#

v  12.6603 57.9518 44.2369
v  21.1036 57.9518 40.8879
v  -12.8966 -70.0098 -20.1966
v  -4.4533 -70.0098 -23.5456
v  4.4533 70.0098 23.5456
v  12.8966 70.0098 20.1966
v  -21.1036 -57.9518 -40.8879
v  -12.6602 -57.9518 -44.2369
# 8 vertices

vn 0.3242 -0.4763 0.8173
vn 0.3242 -0.4763 0.8173
vn 0.3242 -0.4763 0.8173
vn 0.3242 -0.4763 0.8173
vn -0.3242 0.4763 -0.8173
vn -0.3242 0.4763 -0.8173
vn -0.3242 0.4763 -0.8173
vn -0.3242 0.4763 -0.8173
vn 0.1756 0.8793 0.4427
vn 0.1756 0.8793 0.4427
vn 0.1756 0.8793 0.4427
vn 0.1756 0.8793 0.4427
vn 0.9296 -0.0000 -0.3687
vn 0.9296 0.0000 -0.3687
vn 0.9296 -0.0000 -0.3687
vn 0.9296 -0.0000 -0.3687
vn -0.1756 -0.8793 -0.4428
vn -0.1756 -0.8793 -0.4427
vn -0.1756 -0.8793 -0.4428
vn -0.1756 -0.8793 -0.4428
vn -0.9296 0.0000 0.3687
vn -0.9296 0.0000 0.3687
vn -0.9296 0.0000 0.3687
vn -0.9296 0.0000 0.3687
# 24 vertex normals

vt 0.6497 0.4428 0.0000
vt 0.3621 0.4467 0.0000
vt 0.3619 0.4287 0.0000
vt 0.6494 0.4248 0.0000
vt 0.6503 0.4928 0.0000
vt 0.6506 0.5108 0.0000
vt 0.3630 0.5146 0.0000
vt 0.3628 0.4967 0.0000
vt 0.6674 0.4246 0.0000
vt 0.3439 0.4290 0.0000
vt 0.6667 0.3746 0.0000
vt 0.6487 0.3748 0.0000
vt 0.3612 0.3787 0.0000
vt 0.3432 0.3789 0.0000
# 14 texture coords

g planche_bois
usemtl Material__33
s 2
f 1/1/1 3/2/2 4/3/3 2/4/4 
s 4
f 5/5/5 6/6/6 8/7/7 7/8/8 
s 8
f 1/9/9 2/4/10 6/12/11 5/11/12 
s 16
f 2/4/13 4/3/14 8/13/15 6/12/16 
s 32
f 4/3/17 3/10/18 7/14/19 8/13/20 
s 64
f 3/2/21 1/1/22 5/5/23 7/8/24 
# 6 polygons

